<?xml version="1.0" encoding="UTF-8"?>
<svg width="312px" height="206px" viewBox="0 0 512 406" version="1.1" xmlns="http://www.w3.org/2000/svg" xmlns:xlink="http://www.w3.org/1999/xlink" style="display:block;margin:10px auto;">
    <title>Lotus Flower</title>
    <desc>Purple and orange lotus flower.</desc>
    <g id="Page-1" stroke="none" stroke-width="1" fill="none" fill-rule="evenodd">
        <g id="lotus-svgrepo-com" transform="translate(0.000000, 0.892255)" fill-rule="nonzero">
            <path class="petal-purple" d="M414.275378,167.316365 L256.000561,404.172825 C321.558244,404.172825 387.172064,379.393616 437.190814,329.374867 C487.209563,279.356117 512.145958,213.742297 512.000637,148.183898 C478.743988,148.106021 445.51043,154.494499 414.275378,167.316365 Z" id="Path" fill="#720EB1"></path>
            <path class="petal-purple" d="M97.7257451,167.316365 C66.4906923,154.494499 33.2571351,148.106021 0.000485739932,148.183898 C-0.144835435,213.742297 24.79156,279.356117 74.8103092,329.374867 C124.829058,379.393616 190.442879,404.172825 255.989334,404.161602 L97.7257451,167.316365 Z" id="Path" fill="#720EB1"></path>
            <path class="petal-orange" d="M394.548567,69.704018 C363.796299,82.3574704 335.536548,100.972753 311.588177,124.786394 L256.000561,404.172825 C316.629348,379.225202 367.703487,331.081455 394.773118,265.725868 C408.111451,233.514018 414.376426,200.134503 414.275378,167.316365 C414.17433,133.56634 407.33675,100.388921 394.548567,69.704018 Z" id="Path" fill="#CC4400"></path>
            <path class="petal-orange" d="M200.412946,124.786394 C176.464575,100.972753 148.204824,82.3574704 117.452556,69.704018 C104.664373,100.388921 97.8267931,133.56634 97.7257451,167.316365 C97.6246971,200.134503 103.889672,233.514018 117.228005,265.725868 C144.297635,331.081455 195.360547,379.213975 255.989334,404.161598 L200.412946,124.786394 Z" id="Path" fill="#CC4400"></path>
            <circle class="dot2" id="Oval" fill="#CC4400" cx="256.000561" cy="8.46332954" r="8.42066484"></circle>
            <circle class="dot1" id="Oval" fill="#CC4400" cx="178.799906" cy="16.0666285" r="8.42066484"></circle>
            <circle class="dot3" id="Oval" fill="#CC4400" cx="333.200094" cy="16.0666285" r="8.42066484"></circle>
            <path class="petal-purple" d="M311.588177,124.786394 C324.241629,155.055877 331.225167,188.289434 331.225167,223.162214 C331.225167,293.907026 302.460176,357.926534 256.000561,404.172825 C209.540947,357.915307 180.775955,293.895799 180.775955,223.162214 C180.775955,188.289434 187.759494,155.055877 200.412946,124.786394 C213.42568,93.6187062 232.445155,65.5947336 256.000561,42.1403751 C279.555968,65.5947336 298.575443,93.6187062 311.588177,124.786394 Z" id="Path" fill="#720EB1"></path>
        </g>
    </g>
</svg>
